<svg  viewBox="0 0 208 54" fill="none" xmlns="http://www.w3.org/2000/svg">
<path d="M50.5085 53H79.8864L80.6023 48.7045H57.5653L57.6165 48.3722L84.9744 17.4858L85.6136 13.7273H58.0256L57.3097 18.0227H78.9915L78.9403 18.3551L51.1477 49.3949L50.5085 53ZM117.35 37.9915C116.148 45.2017 110.114 49.0881 104.796 49.0881C99.1456 49.0881 95.8473 45.0227 96.8189 38.8864L101.012 13.7273H96.4609L92.1911 39.1676C90.657 48.4744 95.1825 53.5114 102.725 53.5114C108.478 53.5114 113.157 50.5199 115.612 46.4801H115.944L114.87 53H119.421L125.967 13.7273H121.415L117.35 37.9915ZM146.709 53.8182C154.865 53.8182 161.436 48.679 163.737 41.5455H159.135C157.217 46.5312 152.564 49.6506 147.322 49.6506C139.601 49.6506 135.663 42.9517 137.3 33.3892C138.834 23.8778 145.226 17.3324 152.845 17.3324C158.419 17.3324 161.538 20.8608 161.768 25.3864H166.371C166.499 18.0994 161.257 13.1903 153.382 13.1903C143.104 13.1903 134.641 21.7045 132.723 33.5426C130.78 45.2273 136.098 53.8182 146.709 53.8182ZM171.548 53H176.099L178.631 37.7869L183.872 33.5426L196.094 53H201.847L187.733 30.6023L207.369 13.7273H201.54L180.088 32.1619H179.551L184.793 0.636362H180.241L171.548 53Z" fill="#52B319"/>
<path d="M11.5938 4.3125C12.033 4.3125 12.4543 4.487 12.7649 4.7976C13.0755 5.10821 13.25 5.52949 13.25 5.96875V15.9062C13.2495 16.9342 13.5678 17.937 14.161 18.7765C14.7543 19.616 15.5933 20.2508 16.5625 20.5934V5.96875C16.5625 5.52949 16.737 5.10821 17.0476 4.7976C17.3582 4.487 17.7795 4.3125 18.2188 4.3125C18.658 4.3125 19.0793 4.487 19.3899 4.7976C19.7005 5.10821 19.875 5.52949 19.875 5.96875V20.5934C20.8442 20.2508 21.6832 19.616 22.2765 18.7765C22.8697 17.937 23.188 16.9342 23.1875 15.9062V5.96875C23.1875 5.52949 23.362 5.10821 23.6726 4.7976C23.9832 4.487 24.4045 4.3125 24.8438 4.3125C25.283 4.3125 25.7043 4.487 26.0149 4.7976C26.3255 5.10821 26.5 5.52949 26.5 5.96875V15.9062C26.5004 17.8153 25.8412 19.6659 24.6339 21.1448C23.4267 22.6237 21.7455 23.6401 19.875 24.0219V49.0312C19.875 49.4705 19.7005 49.8918 19.3899 50.2024C19.0793 50.513 18.658 50.6875 18.2188 50.6875C17.7795 50.6875 17.3582 50.513 17.0476 50.2024C16.737 49.8918 16.5625 49.4705 16.5625 49.0312V24.0219C14.692 23.6401 13.0108 22.6237 11.8036 21.1448C10.5963 19.6659 9.93711 17.8153 9.9375 15.9062V5.96875C9.9375 5.52949 10.112 5.10821 10.4226 4.7976C10.7332 4.487 11.1545 4.3125 11.5938 4.3125ZM34.7117 9.21169C35.2384 8.68169 35.8313 8.27425 36.4375 8.00594V24.1875H33.125V12.5938C33.125 11.4774 33.7014 10.2187 34.7117 9.21169ZM36.4375 27.5V49.0312C36.4375 49.4705 36.612 49.8918 36.9226 50.2024C37.2332 50.513 37.6545 50.6875 38.0938 50.6875C38.533 50.6875 38.9543 50.513 39.2649 50.2024C39.5755 49.8918 39.75 49.4705 39.75 49.0312V5.96875C39.75 5.52949 39.5755 5.10821 39.2649 4.7976C38.9543 4.487 38.533 4.3125 38.0938 4.3125C35.8976 4.3125 33.8438 5.39238 32.3664 6.86644C30.8924 8.34381 29.8125 10.3976 29.8125 12.5938V25.8438C29.8125 26.283 29.987 26.7043 30.2976 27.0149C30.6082 27.3255 31.0295 27.5 31.4688 27.5H36.4375Z" fill="#52B319"/>
</svg>
